<svg width="450" height="450" viewBox="0 0 450 450" fill="none" xmlns="http://www.w3.org/2000/svg">
<rect width="450" height="450" fill="white"/>
<path d="M16.6 0H0V320.3H16.6V0Z" transform="translate(82.7277 327.46) rotate(-149.999)" fill="black"/>
<path d="M320.3 1.2207e-05H0V16.6H320.3V1.2207e-05Z" transform="translate(65.0601 297)" fill="black"/>
<path d="M185 1.2207e-05H0V16.6H185V1.2207e-05Z" transform="translate(231.608 398.826) rotate(-149.999)" fill="black"/>
<path d="M185 0H6.10352e-06V16.6H185V0Z" transform="translate(370.782 157.747) rotate(-149.999)" fill="black"/>
<path d="M16.6 0H0V185H16.6V0Z" transform="translate(79.7424 157.684) rotate(-120.001)" fill="black"/>
<path d="M320.3 6.10352e-06H0V16.6H320.3V6.10352e-06Z" transform="translate(367.828 327.463) rotate(-120.001)" fill="black"/>
<path d="M16.6 0H0V185H16.6V0Z" transform="translate(77.7601 132.3)" fill="black"/>
<path d="M16.6 0H-6.10352e-06V185H16.6V0Z" transform="translate(356.16 132.3)" fill="black"/>
<path d="M14.5 6.10352e-06H-6.10352e-06V160.9H14.5V6.10352e-06Z" transform="translate(228.782 391.799) rotate(-120.001)" fill="black"/>
<path d="M65.1601 52.3601C55.5601 69.0601 34.1601 74.7601 17.4601 65.1601C0.760054 55.5601 -4.93993 34.1601 4.66007 17.4601C14.2601 0.760067 35.6601 -4.93994 52.3601 4.66006C69.1601 14.3601 74.8601 35.6601 65.1601 52.3601Z" transform="translate(329.6 270.34)" fill="black"/>
<path d="M65.1601 52.3601C55.5601 69.0601 34.1601 74.7601 17.4601 65.1601C0.760067 55.5601 -4.93993 34.1601 4.66007 17.4601C14.2601 0.760065 35.6601 -4.93993 52.3601 4.66007C69.0601 14.3601 74.7601 35.6601 65.1601 52.3601Z" transform="translate(51 109.44)" fill="black"/>
<path d="M4.66007 52.3601C-4.93993 35.6601 0.760065 14.3601 17.4601 4.66006C34.1601 -4.93994 55.4601 0.760067 65.1601 17.4601C74.7601 34.1601 69.0601 55.4601 52.3601 65.1601C35.5601 74.7601 14.2601 69.0601 4.66007 52.3601Z" transform="translate(51.1 270.34)" fill="black"/>
<path d="M4.66007 52.3601C-4.93993 35.6601 0.760059 14.3601 17.4601 4.66007C34.1601 -4.93993 55.4601 0.760065 65.1601 17.4601C74.7601 34.1601 69.0601 55.4601 52.3601 65.1601C35.6601 74.7601 14.2601 69.0601 4.66007 52.3601Z" transform="translate(329.7 109.44)" fill="black"/>
<path d="M34.9 69.8C15.6 69.8 6.10352e-06 54.2 6.10352e-06 34.9C6.10352e-06 15.6 15.6 0 34.9 0C54.2 0 69.8 15.6 69.8 34.9C69.8 54.1 54.2 69.8 34.9 69.8Z" transform="translate(190.36 350.8)" fill="black"/>
<path d="M34.9 69.8C15.6 69.8 6.10352e-06 54.2 6.10352e-06 34.9C6.10352e-06 15.6 15.6 -1.90735e-07 34.9 -1.90735e-07C54.2 -1.90735e-07 69.8 15.6 69.8 34.9C69.8 54.2 54.2 69.8 34.9 69.8Z" transform="translate(190.36 29)" fill="black"/>
</svg>
