<svg width="450" height="450" viewBox="0 0 450 450" fill="none" xmlns="http://www.w3.org/2000/svg">
<rect width="450" height="450" fill="white"/>
<path d="M257.32 206.3C270.01 227.02 286.52 242.25 315.72 242.25C340.25 242.25 355.92 229.99 355.92 213.05C355.92 192.75 339.82 185.56 312.82 173.75L298.02 167.4C255.3 149.2 226.92 126.4 226.92 78.2C226.92 33.8 260.75 1.46484e-05 313.62 1.46484e-05C351.26 1.46484e-05 378.32 13.1 397.82 47.4L351.72 77C341.57 58.8 330.62 51.63 313.62 51.63C296.28 51.63 285.29 62.63 285.29 77C285.29 94.76 296.29 101.95 321.69 112.95L336.49 119.29C386.79 140.86 415.19 162.85 415.19 212.29C415.19 265.59 373.32 294.79 317.09 294.79C262.11 294.79 226.59 268.59 209.21 234.25L257.32 206.3ZM48.19 211.43C57.49 227.93 65.95 241.88 86.29 241.88C105.74 241.88 118.01 234.27 118.01 204.68V3.37999H177.21V205.48C177.21 266.78 141.27 294.68 88.81 294.68C41.41 294.68 13.96 270.15 4.88281e-06 240.605L48.19 211.43Z" transform="translate(17 78)" fill="black"/>
</svg>
