<svg width="450" height="450" viewBox="0 0 450 450" fill="none" xmlns="http://www.w3.org/2000/svg">
<rect width="450" height="450" fill="white"/>
<path d="M416 184.542C416 157.093 381.489 131.08 328.577 114.948C340.788 61.2326 335.361 18.4965 311.449 4.81414C305.937 1.60471 299.493 0.0844574 292.455 0.0844574V18.9187C296.355 18.9187 299.493 19.6789 302.121 21.1147C313.653 27.7024 318.656 52.7867 314.756 85.0499C313.823 92.989 312.297 101.35 310.431 109.881C293.812 105.827 275.666 102.702 256.587 100.675C245.14 85.0499 233.269 70.8608 221.313 58.4454C248.956 32.8544 274.903 18.8343 292.54 18.8343V0C269.221 0 238.695 16.5539 207.83 45.2699C176.965 16.7228 146.439 0.337836 123.121 0.337836V19.1721C140.673 19.1721 166.705 33.1078 194.348 58.5299C182.477 70.9453 170.606 85.0499 159.328 100.675C140.165 102.702 122.019 105.827 105.399 109.965C103.449 101.519 102.007 93.3268 100.99 85.4722C97.0045 53.209 101.923 28.1247 113.37 21.4525C115.914 19.9323 119.221 19.2566 123.121 19.2566V0.422293C115.998 0.422293 109.554 1.94255 103.958 5.15198C80.1304 18.8343 74.7884 61.4859 87.0836 115.033C34.3416 131.249 -2.58771e-06 157.178 -2.58771e-06 184.542C-2.58771e-06 211.991 34.5112 238.005 87.4227 254.136C75.2124 307.852 80.6392 350.588 104.551 364.27C110.063 367.48 116.507 369 123.63 369C146.948 369 177.474 352.446 208.339 323.73C239.204 352.277 269.73 368.662 293.048 368.662C300.171 368.662 306.616 367.142 312.212 363.932C336.039 350.25 341.381 307.599 329.086 254.052C381.658 237.92 416 211.907 416 184.542ZM305.598 128.208C302.461 139.103 298.56 150.336 294.151 161.569C290.674 154.813 287.028 148.056 283.043 141.299C279.142 134.543 274.987 127.955 270.832 121.536C282.873 123.31 294.49 125.506 305.598 128.208ZM266.762 218.157C260.148 229.559 253.365 240.369 246.327 250.42C233.693 251.518 220.889 252.109 208 252.109C195.196 252.109 182.392 251.518 169.843 250.504C162.805 240.454 155.936 229.728 149.322 218.41C142.878 207.346 137.027 196.113 131.685 184.796C136.943 173.478 142.878 162.161 149.238 151.097C155.852 139.695 162.635 128.884 169.673 118.833C182.307 117.735 195.111 117.144 208 117.144C220.804 117.144 233.608 117.735 246.157 118.749C253.195 128.8 260.064 139.526 266.678 150.843C273.122 161.907 278.973 173.14 284.315 184.458C278.973 195.775 273.122 207.093 266.762 218.157ZM294.151 207.177C298.73 218.495 302.63 229.812 305.852 240.792C294.744 243.494 283.043 245.775 270.917 247.548C275.072 241.045 279.227 234.373 283.128 227.532C287.028 220.775 290.674 213.934 294.151 207.177ZM208.17 297.295C200.284 289.187 192.398 280.149 184.597 270.268C192.228 270.606 200.029 270.859 207.915 270.859C215.886 270.859 223.772 270.69 231.488 270.268C223.856 280.149 215.971 289.187 208.17 297.295ZM145.083 247.548C133.042 245.775 121.425 243.579 110.317 240.876C113.455 229.981 117.355 218.748 121.764 207.515C125.241 214.272 128.887 221.028 132.872 227.785C136.858 234.542 140.928 241.13 145.083 247.548ZM207.746 71.7899C215.631 79.8979 223.517 88.935 231.318 98.8167C223.687 98.4788 215.886 98.2255 208 98.2255C200.029 98.2255 192.144 98.3944 184.427 98.8167C192.059 88.935 199.945 79.8979 207.746 71.7899ZM144.998 121.536C140.843 128.039 136.688 134.712 132.788 141.553C128.887 148.309 125.241 155.066 121.764 161.823C117.185 150.505 113.285 139.188 110.063 128.208C121.171 125.59 132.872 123.31 144.998 121.536ZM68.2593 227.278C38.2422 214.525 18.8243 197.802 18.8243 184.542C18.8243 171.282 38.2422 154.475 68.2593 141.806C75.5516 138.681 83.5222 135.894 91.7472 133.276C96.5805 149.83 102.94 167.059 110.826 184.711C103.025 202.279 96.7501 219.424 92.0016 235.893C83.607 233.275 75.6364 230.403 68.2593 227.278ZM113.879 347.97C102.347 341.382 97.3437 316.298 101.244 284.035C102.177 276.095 103.703 267.734 105.569 259.204C122.188 263.258 140.334 266.383 159.413 268.41C170.86 284.035 182.731 298.224 194.687 310.639C167.044 336.23 141.097 350.25 123.46 350.25C119.645 350.166 116.422 349.406 113.879 347.97ZM315.01 283.612C318.996 315.875 314.077 340.96 302.63 347.632C300.086 349.152 296.779 349.828 292.879 349.828C275.327 349.828 249.295 335.892 221.652 310.47C233.523 298.055 245.394 283.95 256.672 268.325C275.835 266.298 293.981 263.173 310.601 259.035C312.551 267.565 314.077 275.758 315.01 283.612ZM347.656 227.278C340.364 230.403 332.393 233.19 324.168 235.809C319.335 219.255 312.975 202.025 305.089 184.373C312.89 166.806 319.165 149.661 323.914 133.191C332.308 135.81 340.279 138.681 347.741 141.806C377.758 154.559 397.176 171.282 397.176 184.542C397.091 197.802 377.673 214.61 347.656 227.278Z" transform="translate(17 40)" fill="black"/>
<path d="M38.7509 77.1952C60.1525 77.1952 77.5018 59.9145 77.5018 38.5976C77.5018 17.2807 60.1525 2.57747e-06 38.7509 2.57747e-06C17.3494 2.57747e-06 1.03508e-05 17.2807 1.03508e-05 38.5976C1.03508e-05 59.9145 17.3494 77.1952 38.7509 77.1952Z" transform="translate(186.164 185.945)" fill="black"/>
</svg>
